<?xml version="1.0" encoding="utf-8"?>
<!-- Generator: Adobe Illustrator 16.0.0, SVG Export Plug-In . SVG Version: 6.00 Build 0)  -->
<!DOCTYPE svg PUBLIC "-//W3C//DTD SVG 1.1//EN" "http://www.w3.org/Graphics/SVG/1.1/DTD/svg11.dtd">
<svg version="1.1" id="Capa_1" xmlns="http://www.w3.org/2000/svg" xmlns:xlink="http://www.w3.org/1999/xlink" x="0px" y="0px"
	 width="533.333px" height="533.333px" viewBox="0 0 533.333 533.333" enable-background="new 0 0 533.333 533.333"
	 xml:space="preserve">
<g>
	<path d="M0.001,266.667c0,147.276,119.391,266.667,266.667,266.667c147.275,0,266.666-119.392,266.666-266.667
		C533.333,119.392,413.943,0,266.668,0C119.392,0.001,0.001,119.392,0.001,266.667z M483.333,266.667
		c0,119.662-97.004,216.667-216.666,216.667c-119.662,0-216.667-97.006-216.667-216.667S147.006,50,266.668,50
		C386.33,50.001,483.333,147.005,483.333,266.667z M243.098,109.763L109.765,243.098c-13.018,13.017-13.018,34.121,0,47.139
		s34.123,13.018,47.141,0l76.429-76.429V400c0,18.41,14.924,33.334,33.333,33.334c18.41,0,33.333-14.924,33.333-33.334V213.808
		l76.43,76.43c13.018,13.019,34.123,13.019,47.141,0c6.51-6.509,9.764-15.041,9.764-23.571s-3.254-17.062-9.764-23.569
		L290.239,109.763C277.22,96.748,256.115,96.748,243.098,109.763z"/>
</g>
</svg>
